<svg width="47" height="47" viewBox="0 0 47 47" fill="none" xmlns="http://www.w3.org/2000/svg">
<path d="M26.6953 16.351H20.7474C18.3301 16.351 16.3635 18.3176 16.3635 20.7349V26.6829C16.3635 29.1002 18.3301 31.0668 20.7474 31.0668H26.6953C29.1126 31.0668 31.0793 29.1002 31.0793 26.6829V20.7349C31.0792 18.3176 29.1126 16.351 26.6953 16.351ZM29.5988 26.6829C29.5988 28.2864 28.2989 29.5864 26.6953 29.5864H20.7474C19.1438 29.5864 17.8439 28.2864 17.8439 26.6829V20.7349C17.8439 19.1313 19.1438 17.8314 20.7474 17.8314H26.6953C28.2989 17.8314 29.5988 19.1313 29.5988 20.7349V26.6829Z" fill="#8C8C8C"/>
<path d="M23.7216 19.9028C21.6229 19.9028 19.9155 21.6102 19.9155 23.7088C19.9155 25.8075 21.6229 27.5149 23.7216 27.5149C25.8202 27.5149 27.5276 25.8075 27.5276 23.7088C27.5276 21.6102 25.8202 19.9028 23.7216 19.9028ZM23.7216 26.0345C22.4371 26.0345 21.3959 24.9933 21.3959 23.7089C21.3959 22.4244 22.4372 21.3832 23.7216 21.3832C25.006 21.3832 26.0472 22.4244 26.0472 23.7089C26.0472 24.9932 25.0059 26.0345 23.7216 26.0345Z" fill="#8C8C8C"/>
<path d="M27.5353 20.8438C28.039 20.8438 28.4473 20.4355 28.4473 19.9318C28.4473 19.4281 28.039 19.0198 27.5353 19.0198C27.0317 19.0198 26.6234 19.4281 26.6234 19.9318C26.6234 20.4355 27.0317 20.8438 27.5353 20.8438Z" fill="#8C8C8C"/>
<circle cx="23.3125" cy="23.3" r="22.8" stroke="#F4F4F4"/>
</svg>
