<svg width="48" height="47" viewBox="0 0 48 47" fill="none" xmlns="http://www.w3.org/2000/svg">
<path d="M22.94 26.4745C21.7358 26.3489 20.65 26.0523 19.7204 25.3253C19.6051 25.2349 19.486 25.1477 19.3807 25.0466C18.9739 24.6559 18.9329 24.2083 19.2548 23.7471C19.5303 23.3524 19.9926 23.2468 20.4732 23.4735C20.5662 23.5174 20.6549 23.5722 20.7398 23.6311C22.4723 24.8215 24.8522 24.8543 26.5911 23.6846C26.7634 23.5525 26.9476 23.4448 27.161 23.3898C27.576 23.2833 27.963 23.4357 28.1858 23.7988C28.4402 24.2135 28.4369 24.6183 28.1234 24.9402C27.6425 25.4338 27.0642 25.7909 26.4216 26.0401C25.814 26.2757 25.1484 26.3943 24.4897 26.473C24.5891 26.5812 24.636 26.6344 24.6981 26.6969C25.5926 27.5956 26.4909 28.4905 27.3824 29.3919C27.6861 29.6991 27.7496 30.0799 27.5824 30.4372C27.3995 30.8276 26.9902 31.0845 26.5888 31.057C26.3346 31.0395 26.1362 30.9129 25.9601 30.7354C25.2851 30.0562 24.5974 29.3895 23.9361 28.6974C23.7436 28.4962 23.6511 28.5343 23.4812 28.709C22.8022 29.408 22.1121 30.0964 21.4179 30.7808C21.1062 31.0881 20.7353 31.1434 20.3738 30.9679C19.9895 30.7816 19.745 30.3894 19.7639 29.9952C19.7769 29.7285 19.908 29.5249 20.091 29.3422C20.9762 28.4583 21.8589 27.5721 22.742 26.6868C22.8004 26.6279 22.8549 26.5655 22.94 26.4745Z" fill="#8C8C8C"/>
<path d="M23.6733 23.3958C21.525 23.3885 19.7635 21.6076 19.776 19.4559C19.7884 17.2805 21.5511 15.5274 23.7205 15.5334C25.8943 15.5393 27.6391 17.3176 27.6282 19.5156C27.6171 21.6629 25.8433 23.4033 23.6733 23.3958ZM25.6257 19.4611C25.6219 18.3928 24.7711 17.5423 23.7049 17.5413C22.6297 17.5402 21.7712 18.4061 21.7795 19.4842C21.7874 20.5485 22.6456 21.393 23.7148 21.3891C24.7807 21.3854 25.6293 20.5293 25.6257 19.4611Z" fill="#8C8C8C"/>
<circle cx="23.7044" cy="23.3" r="22.8" stroke="#F4F4F4"/>
</svg>
