<svg width="48" height="47" viewBox="0 0 48 47" fill="none" xmlns="http://www.w3.org/2000/svg">
<path fill-rule="evenodd" clip-rule="evenodd" d="M18.5273 25.3598C18.5631 25.3719 18.5992 25.3805 18.6353 25.3857C18.6747 25.4782 18.7255 25.5978 18.7849 25.7377C18.9296 26.0791 19.1247 26.5409 19.326 27.0227C19.7366 28.0051 20.1508 29.0178 20.2423 29.3077C20.3555 29.666 20.4752 29.9097 20.6059 30.076C20.6734 30.162 20.7516 30.2371 20.843 30.294C20.8891 30.3226 20.9377 30.3461 20.9884 30.3636C20.9907 30.3643 20.9929 30.3651 20.9951 30.3658C21.2568 30.4646 21.4953 30.4234 21.6446 30.3731C21.7245 30.3462 21.7892 30.3137 21.835 30.2874C21.8584 30.2739 21.8781 30.2614 21.8939 30.2508L21.8976 30.2483L24.2081 28.8074L26.877 30.8536C26.9164 30.8838 26.9593 30.9091 27.0048 30.9289C27.3255 31.0689 27.636 31.1177 27.928 31.0778C28.2196 31.0379 28.4511 30.9154 28.6234 30.7776C28.7922 30.6425 28.9066 30.4913 28.9778 30.379C29.0142 30.3216 29.0415 30.2709 29.0608 30.232C29.0705 30.2124 29.0782 30.1956 29.0842 30.1821L29.092 30.1643L29.0949 30.1573L29.0961 30.1543L29.0966 30.1529L29.0971 30.1516C29.1112 30.1166 29.1219 30.0803 29.1293 30.0432L31.5657 17.7592C31.5735 17.72 31.5775 17.68 31.5775 17.6399C31.5775 17.2802 31.4419 16.9382 31.1232 16.7306C30.8508 16.5532 30.5474 16.5455 30.3556 16.5601C30.1487 16.5758 29.9576 16.6269 29.8294 16.6677C29.7627 16.6889 29.7068 16.7094 29.6664 16.725C29.6462 16.7329 29.6295 16.7396 29.6172 16.7448L29.6079 16.7487L15.9437 22.109L15.9419 22.1096C15.9332 22.1128 15.922 22.1169 15.9087 22.1221C15.8823 22.1324 15.8468 22.1469 15.8054 22.1657C15.7246 22.2023 15.6113 22.2595 15.4951 22.3391C15.3094 22.4663 14.8822 22.8147 14.9541 23.3896C15.0115 23.8483 15.3258 24.1301 15.5172 24.2655C15.6223 24.3399 15.7222 24.3931 15.795 24.4277C15.8287 24.4438 15.8988 24.4723 15.9292 24.4846L15.9368 24.4877L18.5273 25.3598ZM30.0861 17.8779L30.0842 17.8787C30.0774 17.8817 30.0705 17.8845 30.0636 17.8872L16.3828 23.254C16.3757 23.2568 16.3685 23.2595 16.3612 23.262L16.3536 23.2649C16.3449 23.2683 16.3301 23.2743 16.3116 23.2826C16.3011 23.2874 16.2902 23.2926 16.279 23.2981C16.2944 23.3068 16.309 23.3143 16.3221 23.3205C16.3346 23.3265 16.3441 23.3305 16.3494 23.3327L18.9186 24.1976C18.9656 24.2135 19.0095 24.2344 19.0497 24.2597L27.5332 19.2936L27.5411 19.2889C27.5473 19.2852 27.5554 19.2805 27.5651 19.275C27.5845 19.2641 27.611 19.2496 27.6425 19.2335C27.7014 19.2035 27.7956 19.1591 27.9017 19.1263C27.9756 19.1034 28.1935 19.0391 28.429 19.1146C28.5744 19.1613 28.7249 19.2615 28.8228 19.4313C28.8714 19.5157 28.8973 19.6004 28.9099 19.678C28.9432 19.8002 28.9379 19.9209 28.9118 20.0251C28.8556 20.2495 28.698 20.4245 28.5545 20.5584C28.4316 20.6732 26.8411 22.2068 25.2721 23.7207C24.4897 24.4757 23.7152 25.2232 23.1364 25.782L22.7562 26.149L27.5567 29.8294C27.6669 29.8689 27.7319 29.8668 27.7621 29.8627C27.7979 29.8578 27.8273 29.844 27.8573 29.82C27.8908 29.7932 27.9202 29.757 27.9421 29.7224L27.943 29.7209L30.3061 17.8069C30.271 17.8153 30.2356 17.8253 30.2014 17.8362C30.1627 17.8485 30.1307 17.8603 30.1096 17.8685C30.0991 17.8725 30.0916 17.8756 30.0875 17.8773L30.0861 17.8779ZM23.1686 28.0104L22.2109 27.2762L21.9788 28.7524L23.1686 28.0104ZM21.3323 25.8191L22.2847 24.8997C22.8636 24.3409 23.6381 23.5933 24.4206 22.8382L25.2157 22.0712L19.8853 25.1916L19.9139 25.259C20.0592 25.6016 20.2551 26.0655 20.4575 26.5498C20.6088 26.9119 20.7671 27.2932 20.9113 27.6462L21.1427 26.1743C21.165 26.0324 21.2343 25.9095 21.3323 25.8191Z" fill="#8C8C8C"/>
<circle cx="24.0147" cy="23.3" r="22.8" stroke="#F4F4F4"/>
</svg>
