<svg width="47" height="47" viewBox="0 0 47 47" fill="none" xmlns="http://www.w3.org/2000/svg">
<path d="M33.097 17.9711C32.8763 18.6652 32.5787 19.2694 32.2059 19.818L32.2214 19.7934C31.8552 20.4039 31.4178 21.1091 30.9093 21.9092C30.4732 22.5409 30.2424 22.8679 30.2168 22.8903C30.104 23.0317 30.0255 23.205 29.9985 23.3955L29.9977 23.4013C30.0198 23.5746 30.0999 23.7258 30.2168 23.8386L30.5438 24.2033C32.2934 26.0013 33.2774 27.2407 33.496 27.9215C33.5246 27.9967 33.5409 28.0833 33.5409 28.1741C33.5409 28.3327 33.4903 28.479 33.4044 28.5992L33.406 28.5968C33.2622 28.7447 33.061 28.8363 32.8387 28.8363C32.8141 28.8363 32.7888 28.8355 32.7651 28.833H32.7684H30.6174C30.6166 28.833 30.6149 28.833 30.6133 28.833C30.3378 28.833 30.0844 28.7366 29.8857 28.5763L29.8882 28.5779C29.5987 28.34 29.3412 28.0825 29.1107 27.8029L29.1033 27.7931C28.7267 27.3674 28.3926 27.0091 28.101 26.718C27.1298 25.7948 26.413 25.3331 25.9509 25.3331C25.9337 25.3315 25.9141 25.3307 25.8936 25.3307C25.7587 25.3307 25.6328 25.3724 25.529 25.4435L25.5315 25.4419C25.4464 25.5481 25.3949 25.6855 25.3949 25.8335C25.3949 25.8629 25.3966 25.8907 25.4007 25.9193V25.916C25.3786 26.1727 25.3655 26.4711 25.3655 26.7728C25.3655 26.8701 25.3671 26.9666 25.3696 27.063V27.0491V27.9967C25.3778 28.0351 25.3827 28.0792 25.3827 28.1242C25.3827 28.3221 25.2927 28.4986 25.1521 28.6156L25.1513 28.6164C24.8349 28.7611 24.4654 28.8461 24.0754 28.8461C23.992 28.8461 23.9103 28.842 23.8293 28.8347L23.84 28.8355C22.5532 28.811 21.3595 28.4341 20.345 27.7988L20.3736 27.8152C19.1383 27.0647 18.1147 26.0877 17.3348 24.9333L17.3127 24.899C16.572 23.9163 15.8812 22.8061 15.2925 21.6354L15.2353 21.5095C14.8911 20.8538 14.5347 20.0477 14.2273 19.2187L14.1782 19.0675C14.0531 18.6947 13.9624 18.2614 13.9248 17.8125L13.9232 17.7921C13.9232 17.379 14.1662 17.1724 14.6524 17.1724H16.8025C16.8222 17.1708 16.8451 17.1699 16.8688 17.1699C17.0715 17.1699 17.2587 17.2394 17.4067 17.3563L17.4051 17.3547C17.5686 17.5337 17.6896 17.7537 17.7493 17.9989L17.7517 18.0087C18.1474 19.1263 18.5668 20.0649 19.0492 20.9642L18.9944 20.8522C19.3884 21.6452 19.8242 22.3278 20.3213 22.9582L20.3025 22.9328C20.7385 23.468 21.0786 23.7356 21.3227 23.7356C21.3301 23.7365 21.3391 23.7365 21.3489 23.7365C21.4699 23.7365 21.5754 23.6711 21.6326 23.5729L21.6334 23.5713C21.6939 23.416 21.7291 23.2353 21.7291 23.0473C21.7291 23.0072 21.7274 22.9671 21.7242 22.9279V22.9328V19.7616C21.707 19.3879 21.6154 19.0388 21.4625 18.7257L21.4691 18.7413C21.3677 18.5254 21.2459 18.339 21.1012 18.1731L21.1036 18.1763C20.9696 18.0423 20.878 17.8665 20.8494 17.6703L20.8486 17.6654C20.8486 17.5264 20.9123 17.4013 21.0121 17.3196L21.0129 17.3187C21.1118 17.228 21.2443 17.1732 21.389 17.1732H21.3955H24.785C24.803 17.1708 24.8235 17.1699 24.8447 17.1699C25.0041 17.1699 25.1472 17.2419 25.2421 17.3547L25.2429 17.3555C25.3271 17.5092 25.3769 17.6932 25.3769 17.8877C25.3769 17.9188 25.3753 17.9491 25.3729 17.9793V17.9752V22.2044C25.3712 22.224 25.3704 22.2469 25.3704 22.2698C25.3704 22.4202 25.4121 22.5616 25.484 22.6818L25.4824 22.6786C25.5421 22.7668 25.6418 22.8241 25.7547 22.8241H25.7555C25.8994 22.8143 26.0302 22.7668 26.1405 22.6916L26.1381 22.6933C26.3605 22.5404 26.5518 22.3662 26.7177 22.1692L26.721 22.1651C27.2172 21.6043 27.6751 20.9846 28.074 20.3257L28.1059 20.2684C28.3871 19.8024 28.6913 19.2285 28.9668 18.6391L29.0175 18.5189L29.3821 17.7896C29.5088 17.425 29.8489 17.1683 30.2487 17.1683C30.2642 17.1683 30.2798 17.1683 30.2953 17.1691H30.2928H32.4438C33.0248 17.1691 33.2428 17.4365 33.0978 17.9711H33.097Z" fill="#8C8C8C"/>
<circle cx="23.3251" cy="23.3" r="22.8" stroke="#F4F4F4"/>
</svg>
