<svg width="47" height="47" viewBox="0 0 47 47" fill="none" xmlns="http://www.w3.org/2000/svg">
<path d="M16.351 23.7089C16.351 19.6452 19.6452 16.351 23.7088 16.351C27.7725 16.351 31.0667 19.6452 31.0667 23.7089C31.0667 27.7725 27.7725 31.0668 23.7088 31.0668C19.6452 31.0668 16.351 27.7725 16.351 23.7089Z" fill="#8C8C8C"/>
<path fill-rule="evenodd" clip-rule="evenodd" d="M23.56 16.351C23.5252 19.3781 23.3272 21.0722 22.1997 22.1997C21.0721 23.3273 19.378 23.5252 16.351 23.56V23.9993C19.378 24.034 21.0721 24.232 22.1997 25.3595C23.3096 26.4694 23.5188 28.1282 23.5582 31.0668H24.001C24.0404 28.1282 24.2496 26.4694 25.3595 25.3595C26.4693 24.2497 28.1281 24.0405 31.0667 24.001V23.5582C28.1281 23.5188 26.4693 23.3096 25.3595 22.1997C24.2319 21.0722 24.034 19.3781 23.9992 16.351H23.56Z" fill="white"/>
<circle cx="23.3" cy="23.3" r="22.8" stroke="#F4F4F4"/>
</svg>
